<svg xmlns="http://www.w3.org/2000/svg" width="1180" height="660" viewBox="0 0 1180 660" role="img">
<rect width="1180" height="660" fill="#fff"/>
<text x="70" y="42" font-family="Arial" font-size="26" font-weight="700" fill="#17202a">FaultNav sensor simulation — figure-eight / combined-faults</text>
<text x="70" y="72" font-family="Arial" font-size="15" fill="#566573">Ground truth, encoder-derived wheel odometry, gyroscope bias, dropout, and outlier injection.</text>
<text x="70" y="108" font-family="Arial" font-size="17" font-weight="700">Trajectory comparison</text>
<rect x="70" y="125" width="620" height="430" fill="#f8f9f9" stroke="#d5d8dc"/>
<polyline points="537.1,393.3 558.9,391.5 579.3,386.0 597.1,377.2 611.2,365.7 620.7,352.2 624.9,337.5 623.7,322.6 617.2,308.3 605.6,295.6 589.8,285.2 570.7,277.8 549.6,273.9 527.6,273.6 506.3,277.1 486.8,284.0 470.5,294.1 458.4,306.5 451.1,320.6 449.2,335.6 452.7,350.3 461.5,364.0 475.0,375.8 492.4,385.0 512.5,390.9 534.2,393.3 554.6,394.5 575.4,399.3 593.8,407.4 608.7,418.4 619.2,431.6 624.5,446.1 624.4,461.1 618.9,475.6 608.3,488.7 593.3,499.6 574.8,507.6 553.9,512.3 532.0,513.3 510.4,510.6 490.5,504.3 473.5,494.8 460.4,482.8 452.1,468.9 449.1,454.1 451.6,439.2 459.4,425.2 472.0,413.0 488.7,403.3 508.3,396.6 529.8,393.5 537.1,393.3" fill="none" stroke="#21618c" stroke-width="4"/>
<polyline points="537.1,393.3 558.9,391.5 579.5,386.3 597.7,377.8 612.3,366.7 622.7,353.5 628.2,338.9 628.5,324.0 623.5,309.4 613.6,296.0 599.3,284.6 581.5,275.8 561.2,270.2 538.2,266.2 515.0,263.0 491.6,260.4 468.0,258.5 444.4,257.3 420.7,256.8 397.0,257.0 373.4,257.9 349.8,259.4 326.3,261.6 303.0,264.5 279.9,268.1 259.4,273.4 240.6,279.1 218.9,281.7 197.0,280.3 176.3,275.2 158.3,266.5 144.2,255.0 134.9,241.4 131.1,226.6 133.0,211.6 140.6,197.5 153.2,185.2 170.1,175.6 190.1,169.3 211.8,166.7 233.7,168.0 254.4,173.1 272.4,181.7 286.6,193.3 295.9,206.9 299.6,221.7 297.7,236.6 290.1,250.8 277.5,263.1 260.6,272.7 240.6,279.1 233.5,280.4" fill="none" stroke="#d68910" stroke-width="3"/>
<circle cx="537.1" cy="393.3" r="7" fill="#1e8449"/>
<circle cx="233.5" cy="280.4" r="7" fill="#d68910"/>
<text x="750" y="108" font-family="Arial" font-size="17" font-weight="700">IMU yaw-rate comparison</text>
<rect x="750" y="125" width="370" height="430" fill="#f8f9f9" stroke="#d5d8dc"/>
<rect x="838.3" y="125" width="88.3" height="430" fill="#f5b041" opacity=".13"/>
<rect x="985.5" y="125" width="29.4" height="430" fill="#c0392b" opacity=".12"/>
<polyline points="750.0,347.6 754.4,181.9 758.8,181.9 763.2,181.9 767.7,181.9 772.1,181.9 776.5,181.9 780.9,181.9 785.3,181.9 789.7,181.9 794.2,181.9 798.6,181.9 803.0,181.9 807.4,181.9 811.8,181.9 816.2,181.9 820.7,181.9 825.1,181.9 829.5,181.9 833.9,181.9 838.3,181.9 842.7,181.9 847.2,181.9 851.6,181.9 856.0,181.9 860.4,181.9 864.8,181.9 869.2,181.9 873.7,181.9 878.1,181.9 882.5,181.9 886.9,181.9 891.3,181.9 895.7,181.9 900.2,181.9 904.6,181.9 909.0,181.9 913.4,181.9 917.8,181.9 922.2,181.9 926.7,181.9 931.1,181.9 935.0,181.9 939.4,513.4 943.8,513.4 948.2,513.4 952.7,513.4 957.1,513.4 961.5,513.4 965.9,513.4 970.3,513.4 974.7,513.4 979.2,513.4 983.6,513.4 988.0,513.4 992.4,513.4 996.8,513.4 1001.2,513.4 1005.7,513.4 1010.1,513.4 1014.5,513.4 1018.9,513.4 1023.3,513.4 1027.7,513.4 1032.2,513.4 1036.6,513.4 1041.0,513.4 1045.4,513.4 1049.8,513.4 1054.2,513.4 1058.7,513.4 1063.1,513.4 1067.5,513.4 1071.9,513.4 1076.3,513.4 1080.7,513.4 1085.2,513.4 1089.6,513.4 1094.0,513.4 1098.4,513.4 1102.8,513.4 1107.2,513.4 1111.7,513.4 1116.1,513.4 1120.0,513.4" fill="none" stroke="#566573" stroke-width="2"/>
<polyline points="750.0,347.6 754.4,168.1 758.8,169.9 763.2,167.6 767.7,167.8 772.1,167.2 776.5,168.0 780.9,168.3 785.3,168.6 789.7,168.4 794.2,167.7 798.6,169.5 803.0,168.7 807.4,169.0 811.8,170.4 816.2,168.3 820.7,170.0 825.1,168.1 829.5,168.4 833.9,169.6 838.3,168.6 842.7,171.9 847.2,168.1 851.6,169.1 856.0,168.6 860.4,168.8 864.8,168.7 869.2,167.1 873.7,169.9 878.1,168.6 882.5,168.4 886.9,168.8 891.3,168.5 895.7,167.8 900.2,169.6 904.6,167.0 909.0,168.7 913.4,167.8 917.8,168.7 922.2,169.7 926.7,166.8 931.1,167.8 935.0,169.6 939.4,500.2 943.8,499.9 948.2,500.4 952.7,499.9 957.1,499.5 961.5,499.8 965.9,500.8 970.3,499.8 974.7,499.2 979.2,499.8 983.6,501.1" fill="none" stroke="#c0392b" stroke-width="2.5"/>
<polyline points="1018.9,500.3 1023.3,498.9 1027.7,499.4 1032.2,498.2 1036.6,500.4 1041.0,500.2 1045.4,234.2 1049.8,500.8 1054.2,500.5 1058.7,500.8 1063.1,501.6 1067.5,500.0 1071.9,500.6 1076.3,499.3 1080.7,499.2 1085.2,500.1 1089.6,501.0 1094.0,501.1 1098.4,500.0 1102.8,500.6 1107.2,498.9 1111.7,500.8 1116.1,498.9 1120.0,499.4" fill="none" stroke="#c0392b" stroke-width="2.5"/>
<line x1="70" y1="590" x2="100" y2="590" stroke="#21618c" stroke-width="4"/><text x="110" y="595" font-family="Arial" font-size="14">Ground truth</text>
<line x1="240" y1="590" x2="270" y2="590" stroke="#d68910" stroke-width="4"/><text x="280" y="595" font-family="Arial" font-size="14">Wheel odometry</text>
<line x1="440" y1="590" x2="470" y2="590" stroke="#c0392b" stroke-width="4"/><text x="480" y="595" font-family="Arial" font-size="14">Measured gyro</text>
<rect x="650" y="580" width="24" height="14" fill="#f5b041" opacity=".35"/><text x="684" y="593" font-family="Arial" font-size="14">Wheel slip</text>
<rect x="800" y="580" width="24" height="14" fill="#c0392b" opacity=".28"/><text x="834" y="593" font-family="Arial" font-size="14">IMU dropout</text>
<text x="70" y="628" font-family="Arial" font-size="14">Position RMSE: 4.064 m</text>
<text x="300" y="628" font-family="Arial" font-size="14">Heading RMSE: 2.143 rad</text>
<text x="550" y="628" font-family="Arial" font-size="14">Final position error: 3.929 m</text>
<text x="840" y="628" font-family="Arial" font-size="14">IMU dropout: 2.00 s</text>
</svg>
